<svg width="24" height="24" viewBox="0 0 24 24" fill="none" xmlns="http://www.w3.org/2000/svg">
<path d="M11 2.10021C10.6766 2.03449 10.3421 2 10 2C7.89225 2 6.09097 3.30344 5.35484 5.14722C3.42387 5.65404 2 7.4102 2 9.5C2 10.4247 2.27964 11.2851 2.75796 12C2.27964 12.7149 2 13.5753 2 14.5C2 16.2118 2.95553 17.6984 4.35942 18.459C5.14867 20.5286 7.15137 22 9.5 22C10.0195 22 10.5228 21.9277 11 21.7927V17.0029V17C11 15.8954 10.1046 15 9 15C8.44772 15 8 14.5523 8 14C8 13.4477 8.44772 13 9 13C9.72858 13 10.4117 13.1948 11 13.5351V7V6.99766V2.10021Z" fill="#E0E4ED"/>
<path d="M13 21.7927C13.4772 21.9277 13.9805 22 14.5 22C16.8486 22 18.8513 20.5286 19.6406 18.459C21.0445 17.6984 22 16.2118 22 14.5C22 13.5753 21.7204 12.7149 21.242 12C21.7204 11.2851 22 10.4247 22 9.5C22 7.4102 20.5761 5.65404 18.6452 5.14722C17.909 3.30344 16.1077 2 14 2C13.6579 2 13.3234 2.03449 13 2.10021V7.00329C13.0018 8.10635 13.8965 9 15 9C15.5523 9 16 9.44771 16 10C16 10.5523 15.5523 11 15 11C14.2714 11 13.5883 10.8052 13 10.4649V21.7927Z" fill="#E0E4ED"/>
</svg>
