<svg width="72" height="72" viewBox="0 0 72 72" fill="none" xmlns="http://www.w3.org/2000/svg">
  <path d="M18.7273 16.9091V18.7273H16.9091V16.9091H18.7273ZM19.6364 16H16V19.6364H19.6364V16Z" fill="white"/>
  <path opacity="0.3" d="M35.9999 16H25.0908V16.9091H35.9999V16Z" fill="white"/>
  <path opacity="0.3" d="M16.9091 25.0908H16V35.9999H16.9091V25.0908Z" fill="white"/>
  <path d="M25.0905 16H21.4541V16.9091H25.0905V16Z" fill="white"/>
  <path d="M16.9091 21.4541H16V25.0905H16.9091V21.4541Z" fill="white"/>
  <path d="M53.2727 55.0909V53.2727H55.0909V55.0909H53.2727ZM52.3636 56H56V52.3636H52.3636V56Z" fill="white"/>
  <path opacity="0.3" d="M36.0001 56H46.9092V55.0909H36.0001V56Z" fill="white"/>
  <path opacity="0.3" d="M55.0909 46.9092H56V36.0001H55.0909V46.9092Z" fill="white"/>
  <path d="M46.9095 56H50.5459V55.0909H46.9095V56Z" fill="white"/>
  <path d="M55.0909 50.5459H56V46.9095H55.0909V50.5459Z" fill="white"/>
  <path d="M53.2727 16.9091V18.7273H55.0909V16.9091H53.2727ZM52.3636 16H56V19.6364H52.3636V16Z" fill="white"/>
  <path opacity="0.3" d="M36.0001 16H46.9092V16.9091H36.0001V16Z" fill="white"/>
  <path opacity="0.3" d="M55.0909 25.0908H56V35.9999H55.0909V25.0908Z" fill="white"/>
  <path d="M46.9095 16H50.5459V16.9091H46.9095V16Z" fill="white"/>
  <path d="M55.0909 21.4541H56V25.0905H55.0909V21.4541Z" fill="white"/>
  <path d="M18.7273 55.0909V53.2727H16.9091V55.0909H18.7273ZM19.6364 56H16V52.3636H19.6364V56Z" fill="white"/>
  <path opacity="0.3" d="M35.9999 56H25.0908V55.0909H35.9999V56Z" fill="white"/>
  <path opacity="0.3" d="M16.9091 46.9092H16V36.0001H16.9091V46.9092Z" fill="white"/>
  <path d="M25.0905 56H21.4541V55.0909H25.0905V56Z" fill="white"/>
  <path d="M16.9091 50.5459H16V46.9095H16.9091V50.5459Z" fill="white"/>
</svg>
