<svg preserveAspectRatio="none" width="100%" height="100%" overflow="visible" style="display: block;" viewBox="0 0 14 14" fill="none" xmlns="http://www.w3.org/2000/svg">
<g id="map-pin">
<path id="Vector" d="M8.45705 5.83333C8.45705 6.63874 7.80413 7.29167 6.99872 7.29167C6.19331 7.29167 5.54038 6.63874 5.54038 5.83333C5.54038 5.02792 6.19331 4.375 6.99872 4.375C7.80413 4.375 8.45705 5.02792 8.45705 5.83333Z" fill="var(--fill-0, #2B67D1)"/>
<path id="Vector_2" d="M11.0833 5.83333C11.0833 8.38279 8.81662 10.6952 7.66086 11.7086C7.2779 12.0444 6.7221 12.0444 6.33914 11.7086C5.18339 10.6952 2.91667 8.38279 2.91667 5.83333C2.91667 3.57817 4.74484 1.75 7 1.75C9.25517 1.75 11.0833 3.57817 11.0833 5.83333Z" stroke="var(--stroke-0, white)" stroke-opacity="0.2" stroke-width="1.16667" stroke-linejoin="round"/>
</g>
</svg>
