<svg preserveAspectRatio="none" width="100%" height="100%" overflow="visible" style="display: block;" viewBox="0 0 24 24" fill="none" xmlns="http://www.w3.org/2000/svg">
<g id="IconImagineHead">
<path id="Vector" d="M11.5002 3.0083C15.1294 3.1295 16.5562 4.58907 17.2083 6.60988C17.6702 8.04121 19.1745 8.62782 20.4729 9.24025C20.7517 9.37175 20.8324 9.724 20.6475 9.97059L19.5003 11.5001C22.0003 19.0001 16.5003 16.0001 15.704 19.1118L15.2439 21M7.20027 21L7.50022 19.5001C7.94623 16.8241 4.81147 14.5459 4.12939 11.9557" stroke="var(--stroke-0, #252526)" stroke-width="2" stroke-linecap="round" stroke-linejoin="round"/>
<path id="Vector_2" d="M7.08091 3.77036L6.54359 2.37334C6.45708 2.14842 6.24099 2 6 2C5.75901 2 5.54292 2.14842 5.45641 2.37334L4.91909 3.77036C4.71594 4.29854 4.29854 4.71594 3.77036 4.91909L2.37334 5.45641C2.14842 5.54292 2 5.75901 2 6C2 6.24099 2.14842 6.45708 2.37334 6.54359L3.77036 7.08091C4.29854 7.28406 4.71594 7.70146 4.91909 8.22964L5.45641 9.62666C5.54292 9.85158 5.75901 10 6 10C6.24099 10 6.45708 9.85158 6.54359 9.62666L7.08091 8.22964C7.28406 7.70146 7.70146 7.28406 8.22964 7.08091L9.62666 6.54359C9.85158 6.45708 10 6.24099 10 6C10 5.75901 9.85158 5.54292 9.62666 5.45641L8.22964 4.91909C7.70146 4.71594 7.28406 4.29854 7.08091 3.77036Z" fill="var(--fill-0, #252526)"/>
</g>
</svg>
