<svg preserveAspectRatio="none" width="100%" height="100%" overflow="visible" style="display: block;" viewBox="0 0 11.8387 11.8387" fill="none" xmlns="http://www.w3.org/2000/svg">
<path id="Union" d="M10.0073 9.39195L11.7158 11.1004C11.7978 11.1917 11.8387 11.2942 11.8387 11.4079C11.8387 11.5216 11.7954 11.6219 11.7088 11.7088C11.6222 11.7957 11.5219 11.839 11.4079 11.8387C11.2939 11.8385 11.1914 11.7975 11.1004 11.7158L9.39186 10.0074C8.17994 11.0006 6.83577 11.4538 5.35936 11.3672C3.88295 11.2806 2.60264 10.6769 1.51844 9.55598C0.47944 8.38055 -0.0263543 7.05465 0.00105685 5.5783C0.028468 4.10194 0.584419 2.79879 1.66891 1.66885C2.79889 0.584398 4.10209 0.028467 5.5785 0.00105685C7.05492 -0.0263533 8.38086 0.479423 9.55633 1.51838C10.6773 2.60284 11.281 3.88309 11.3677 5.35916C11.4543 6.83523 11.001 8.17935 10.0077 9.39152L10.0073 9.39195ZM5.68786 10.499C7.05492 10.4626 8.18942 9.99323 9.09136 9.09103C9.99331 8.18882 10.4627 7.05436 10.4994 5.68765C10.4629 4.32064 9.9936 3.18618 9.09136 2.28427C8.18913 1.38235 7.05462 0.913028 5.68786 0.876287C4.3208 0.912736 3.18629 1.38206 2.28435 2.28427C1.38241 3.18647 0.913062 4.32093 0.876319 5.68765C0.91277 7.05465 1.38211 8.18911 2.28435 9.09103C3.18659 9.99294 4.32109 10.4623 5.68786 10.499Z" fill="var(--fill-0, #898A8C)"/>
</svg>
