<svg preserveAspectRatio="none" width="100%" height="100%" overflow="visible" style="display: block;" viewBox="0 0 10.1447 5.34581" fill="none" xmlns="http://www.w3.org/2000/svg">
<path id="Union" d="M9.44694 0.123377L5.07194 4.389L0.696937 0.123377C0.614979 0.0414185 0.519312 0.000439223 0.409937 0.000439223C0.300562 0.000439223 0.204896 0.0414185 0.122938 0.123377C0.0409792 0.205335 0 0.301002 0 0.410377C0 0.519752 0.0364583 0.610898 0.109375 0.683814L4.77138 5.22288C4.85333 5.30483 4.95367 5.34581 5.07237 5.34581C5.19108 5.34581 5.29142 5.30483 5.37337 5.22288L10.0354 0.697377C10.1083 0.615419 10.1447 0.517418 10.1447 0.403376C10.1447 0.289335 10.1038 0.193669 10.0218 0.116377C9.93985 0.0390852 9.84419 0.000293213 9.73481 1.54593e-06C9.62544 -0.000290121 9.52977 0.0406891 9.44781 0.122939L9.44694 0.123377Z" fill="var(--fill-0, #BBBCBF)"/>
</svg>
